<svg height="512pt" viewBox="0 0 512.00016 512" width="512pt" xmlns="http://www.w3.org/2000/svg"><path d="m409.601562 503.464844h93.867188l-.003906-7.59375c.015625-10.925782-1.300782-21.816406-3.921875-32.425782l-7.9375-32.171874c-9.203125-33.554688-40.046875-56.558594-74.835938-55.808594h-321.539062c-34.789063-.75-65.628907 22.253906-74.835938 55.808594l-7.9375 32.171874c-2.621093 10.609376-3.9375 21.5-3.921875 32.425782v7.59375zm0 0" fill="#cad9fc"/><path d="m187.734375 281.289062h136.53125v94.488282h-136.53125zm0 0" fill="#cad9fc"/><path d="m384 183.464844v64c.011719 15.847656-6.277344 31.046875-17.484375 42.253906-11.203125 11.203125-26.402344 17.492188-42.25 17.480469h-136.53125c-15.847656.011719-31.046875-6.277344-42.25-17.480469-11.207031-11.207031-17.496094-26.40625-17.484375-42.253906v-81.066406c2.316406-2.421876 4.484375-4.988282 6.484375-7.679688 8.308594-10.492188 14.773437-22.324219 19.117187-34.984375 8.53125-25.601563 17.066407-34.132813 34.132813-34.132813s34.132813 25.597657 93.867187 25.597657c59.730469 0 68.265626-25.597657 68.265626-25.597657 5.363281 23.820313 12.320312 47.253907 20.820312 70.140626.179688.355468.324219.726562.425781 1.109374 1.621094 3.84375 3.242188 7.425782 4.867188 10.582032.765625 1.621094 1.621093 3.074218 2.386719 4.4375 1.5625 2.75 3.453124 5.300781 5.632812 7.59375zm0 0" fill="#cad9fc"/><path d="m358.398438 183.464844v64c0 33.027344-21.367188 59.734375-47.785157 59.734375h-109.226562c-26.417969 0-47.785157-26.707031-47.785157-59.734375v-81.066406c1.875-2.457032 3.609376-5.019532 5.1875-7.679688 6.804688-10.839844 11.957032-22.628906 15.289063-34.984375 6.828125-25.601563 13.65625-34.132813 27.308594-34.132813 13.652343 0 27.308593 25.597657 75.09375 25.597657 47.785156 0 54.613281-25.597657 54.613281-25.597657 4.257812 23.667969 9.820312 47.085938 16.65625 70.140626.144531.363281.257812.734374.34375 1.109374 1.296875 3.84375 2.59375 7.425782 3.890625 10.582032.613281 1.621094 1.296875 3.074218 1.910156 4.4375 1.214844 2.691406 2.726563 5.238281 4.503907 7.59375zm0 0" fill="#e8edfc"/><path d="m332.800781 349.867188c-28.949219 7.109374-55.46875 21.84375-76.800781 42.667968-21.332031-20.824218-47.851562-35.558594-76.800781-42.667968zm0 0" fill="#e8edfc"/><path d="m435.199219 503.464844h-358.398438l28.925781-139.945313c2.945313-8.820312 11.558594-14.46875 20.824219-13.652343h52.648438c28.949219 7.109374 55.46875 21.84375 76.800781 42.667968 21.332031-20.824218 47.851562-35.558594 76.800781-42.667968h52.648438c9.285156-.816407 17.921875 4.824218 20.90625 13.652343zm0 0" fill="#cad9fc"/><path d="m401.066406 503.464844h-290.132812l23.417968-139.945313c1.515626-8.066406 8.652344-13.847656 16.859376-13.652343h42.621093c24.53125 7.671874 46.1875 22.539062 62.167969 42.667968 15.980469-20.132812 37.640625-34.996094 62.171875-42.667968h42.621094c8.21875-.195313 15.378906 5.578124 16.925781 13.652343zm0 0" fill="#e8edfc"/><path d="m273.066406 204.800781c-2.261718 0-4.433594-.898437-6.03125-2.5-2.984375-3.082031-6.832031-5.1875-11.035156-6.035156-4.214844.851563-8.070312 2.964844-11.058594 6.058594-3.351562 3.242187-8.6875 3.191406-11.976562-.113281-3.289063-3.304688-3.320313-8.636719-.066406-11.976563 6.171874-6.273437 14.347656-10.175781 23.101562-11.035156 8.753906.859375 16.929688 4.761719 23.101562 11.035156 2.4375 2.441406 3.167969 6.109375 1.847657 9.296875-1.320313 3.1875-4.429688 5.269531-7.882813 5.269531zm0 0" fill="#2fa8cc"/><path d="m179.285156 193.878906c.011719.398438-.015625.796875-.085937 1.191406-.59375 4.210938-4.195313 7.339844-8.445313 7.339844-.402344.015625-.800781-.015625-1.195312-.085937l-7.082032-1.023438-34.476562-4.949219v-8.617187c2.316406-2.425781 4.484375-4.988281 6.484375-7.679687l29.355469 4.179687 8.105468 1.195313c4.210938.59375 7.339844 4.195312 7.339844 8.449218zm0 0" fill="#2fa8cc"/><path d="m378.367188 197.207031-9.300782 1.277344-19.539062 2.816406-7.085938 1.023438c-.394531.070312-.792968.101562-1.191406.085937-2.035156 0-4.003906-.726562-5.546875-2.046875-.765625-.679687-1.398437-1.488281-1.878906-2.390625-.527344-.882812-.847657-1.875-.9375-2.902344-.1875-1.316406-.074219-2.660156.339843-3.921874-.003906-.121094.027344-.238282.085938-.34375.429688-.871094.945312-1.699219 1.535156-2.472657.328125-.414062.699219-.785156 1.109375-1.109375 1.183594-.953125 2.597657-1.570312 4.097657-1.792968l8.105468-1.195313 18.515625-2.644531c.367188-.070313.738281-.101563 1.109375-.085938l2.902344-.425781c.179688.355469.324219.726563.425781 1.109375 1.621094 3.839844 3.242188 7.421875 4.867188 10.582031.765625 1.621094 1.621093 3.070313 2.386719 4.4375zm0 0" fill="#2fa8cc"/><path d="m375.980469 192.769531c-1.019531 3.074219-3.703125 5.292969-6.914063 5.714844l-19.539062 2.816406-7.085938 1.023438c-.394531.070312-.792968.101562-1.191406.085937-2.035156 0-4.003906-.726562-5.546875-2.046875-.765625-.679687-1.398437-1.488281-1.878906-2.390625-.515625-.894531-.863281-1.878906-1.023438-2.902344-.207031-1.320312-.058593-2.675781.425781-3.921874-.003906-.121094.027344-.238282.085938-.34375.429688-.871094.945312-1.699219 1.535156-2.472657.328125-.414062.699219-.785156 1.109375-1.109375 1.183594-.953125 2.597657-1.570312 4.097657-1.792968l8.105468-1.195313 18.515625-2.644531c.367188-.070313.738281-.101563 1.109375-.085938 1.144532.003906 2.277344.234375 3.328125.683594 1.621094 3.839844 3.242188 7.421875 4.867188 10.582031zm0 0" fill="#2fa8cc"/><path d="m290.132812 503.464844-17.066406-64h-34.132812l-8.535156 64zm0 0" fill="#cad9fc"/><path d="m298.070312 418.730469-17.496093 17.492187c-4.800781 4.792969-11.304688 7.492188-18.089844 7.511719h-12.96875c-6.785156-.019531-13.289063-2.71875-18.089844-7.511719l-17.496093-17.492187 16.828124-29.398438 25.242188 3.203125 38.757812-3.914062 4.265626 31.289062zm0 0" fill="#e8edfc"/><path d="m256 392.535156c-16.425781 8.292969-31.964844 18.238282-46.378906 29.675782-3.007813 2.582031-7.410156 2.707031-10.558594.300781-13.613281-10.328125-47.226562-38.800781-53.996094-72.644531h34.132813c28.949219 7.109374 55.46875 21.84375 76.800781 42.667968zm0 0" fill="#fff"/><path d="m366.933594 349.867188c-6.769532 33.84375-40.382813 62.316406-53.996094 72.644531-3.148438 2.40625-7.550781 2.28125-10.558594-.300781-14.414062-11.4375-29.953125-21.382813-46.378906-29.675782 21.332031-20.824218 47.851562-35.558594 76.800781-42.667968zm0 0" fill="#fff"/><path d="m409.601562 145.066406c-1.230468 29.957032-10.039062 59.109375-25.601562 84.738282v-25.003907c-2.179688-2.292969-4.070312-4.84375-5.632812-7.59375-.765626-1.367187-1.621094-2.816406-2.386719-4.4375-1.625-3.160156-3.246094-6.742187-4.867188-10.582031-.101562-.382812-.246093-.753906-.425781-1.109375-8.5-22.890625-15.457031-46.324219-20.820312-70.144531 0 0-8.535157 25.601562-68.265626 25.601562-59.734374 0-76.800781-25.601562-93.867187-25.601562s-25.601563 8.53125-34.132813 34.132812c-4.34375 12.660156-10.808593 24.492188-19.117187 34.988282-2 2.691406-4.167969 5.253906-6.484375 7.679687v42.664063s-25.601562-42.664063-25.601562-85.332032c0-34.132812-8.53125-136.53125 153.175781-136.53125h.425781c162.132812 0 153.601562 102.398438 153.601562 136.53125zm0 0" fill="#cad9fc"/><path d="m296.339844 260.265625c-6.894532 13.492187-28.414063 15.402344-40.167969 15.402344-11.78125 0-33.277344-1.910157-40.171875-15.402344 13.148438 3.238281 26.628906 4.929687 40.171875 5.035156 13.539063-.105469 27.023437-1.792969 40.167969-5.035156zm0 0" fill="#428dff"/><path d="m273.066406 204.800781c-2.261718 0-4.433594-.898437-6.03125-2.5-2.984375-3.082031-6.832031-5.1875-11.035156-6.035156-4.214844.851563-8.070312 2.964844-11.058594 6.058594-3.351562 3.242187-8.6875 3.191406-11.976562-.113281-3.289063-3.304688-3.320313-8.636719-.066406-11.976563 6.171874-6.273437 14.347656-10.175781 23.101562-11.035156 8.753906.859375 16.929688 4.761719 23.101562 11.035156 2.4375 2.441406 3.167969 6.109375 1.847657 9.296875-1.320313 3.1875-4.429688 5.269531-7.882813 5.269531zm0 0" fill="#428dff"/><path d="m170.761719 202.410156c-.410157 0-.816407-.027344-1.222657-.085937l-42.753906-6.144531c-3.058594-.382813-5.671875-2.390626-6.835937-5.246094-1.164063-2.855469-.695313-6.117188 1.222656-8.53125 1.921875-2.414063 4.996094-3.601563 8.039063-3.113282l42.753906 6.144532c4.429687.632812 7.621094 4.582031 7.304687 9.050781-.3125 4.46875-4.027343 7.929687-8.507812 7.929687zm0 0" fill="#428dff"/><path d="m341.238281 202.410156c-4.480469.003906-8.199219-3.457031-8.515625-7.925781-.320312-4.46875 2.871094-8.421875 7.308594-9.054687l26.621094-3.839844c4.664062-.675782 8.992187 2.558594 9.667968 7.226562.675782 4.664063-2.5625 8.992188-7.226562 9.664063l-26.621094 3.839843c-.410156.058594-.820312.089844-1.234375.089844zm0 0" fill="#428dff"/><path d="m238.933594 196.265625c0 18.851563-15.28125 34.132813-34.132813 34.132813-18.851562 0-34.132812-15.28125-34.132812-34.132813s15.28125-34.132813 34.132812-34.132813c18.851563 0 34.132813 15.28125 34.132813 34.132813zm0 0" fill="#a4c2f7"/><path d="m341.332031 196.265625c0 18.851563-15.28125 34.132813-34.132812 34.132813-18.851563 0-34.132813-15.28125-34.132813-34.132813s15.28125-34.132813 34.132813-34.132813c18.851562 0 34.132812 15.28125 34.132812 34.132813zm0 0" fill="#a4c2f7"/><path d="m230.398438 197.8125c0-10.101562-7.640626-18.292969-17.066407-18.292969s-17.066406 8.191407-17.066406 18.292969 7.640625 18.292969 17.066406 18.292969 17.066407-8.191407 17.066407-18.292969zm0 0" fill="#428dff"/><path d="m218.117188 181.941406c-4.40625-1.675781-9.332032.535156-11.007813 4.941406s.535156 9.335938 4.941406 11.007813c4.40625 1.675781 9.332031-.535156 11.007813-4.941406 1.675781-4.402344-.535156-9.332031-4.941406-11.007813zm0 0" fill="#fff"/><path d="m315.734375 197.8125c0-10.101562-7.640625-18.292969-17.066406-18.292969s-17.066407 8.191407-17.066407 18.292969 7.640626 18.292969 17.066407 18.292969 17.066406-8.191407 17.066406-18.292969zm0 0" fill="#428dff"/><path d="m304.890625 186.882812c-1.675781-4.40625-6.605469-6.617187-11.007813-4.941406-4.40625 1.675782-6.617187 6.605469-4.941406 11.007813 1.671875 4.40625 6.601563 6.617187 11.007813 4.945312 4.40625-1.675781 6.617187-6.605469 4.941406-11.011719zm0 0" fill="#fff"/><path d="m187.734375 307.199219v42.667969h25.597656v-42.667969c-15.84375.011719-31.042969-6.277344-42.25-17.480469-11.203125-11.207031-17.492187-26.40625-17.480469-42.253906v-17.066406s-25.601562-42.664063-25.601562-85.332032c0-33.21875-8.019531-131.0625 140.605469-136.277344-4.101563-.144531-8.261719-.253906-12.605469-.253906h-.425781c-161.707031 0-153.175781 102.398438-153.175781 136.53125 0 42.667969 25.601562 85.332032 25.601562 85.332032v17.066406c-.011719 15.847656 6.277344 31.046875 17.484375 42.253906 11.203125 11.203125 26.402344 17.492188 42.25 17.480469zm0 0" fill="#fff"/><path d="m34.132812 495.871094c-.015624-10.925782 1.304688-21.816406 3.925782-32.425782l7.9375-32.171874c9.203125-33.554688 40.046875-56.558594 74.835937-55.808594h8.027344l2.46875-11.945313c2.945313-8.820312 11.558594-14.46875 20.820313-13.652343h-25.597657c-9.265625-.816407-17.878906 4.832031-20.824219 13.652343l-2.46875 11.945313h-8.027343c-34.789063-.75-65.628907 22.253906-74.835938 55.808594l-7.9375 32.171874c-2.621093 10.609376-3.9375 21.5-3.921875 32.425782v7.59375h25.597656zm0 0" fill="#fff"/><path d="m435.199219 512h-358.398438c-2.566406 0-4.996093-1.152344-6.617187-3.144531-1.621094-1.988281-2.261719-4.601563-1.742188-7.113281l28.910156-139.921876c3.722657-12.84375 15.882813-21.367187 29.226563-20.488281h258.894531c13.359375-.875 25.527344 7.667969 29.238282 20.535157l28.84375 139.875c.519531 2.511718-.121094 5.125-1.742188 7.113281-1.617188 1.988281-4.046875 3.144531-6.613281 3.144531zm-347.925781-17.066406h337.457031l-26.742188-129.664063c-2.261719-4.738281-7.300781-7.507812-12.515625-6.871093h-258.894531c-5.199219-.632813-10.226563 2.113281-12.503906 6.828124zm0 0" fill="#428dff"/><path d="m324.265625 358.398438h-136.53125c-4.714844 0-8.535156-3.820313-8.535156-8.53125v-42.667969c0-4.710938 3.820312-8.53125 8.535156-8.53125h136.53125c4.714844 0 8.535156 3.820312 8.535156 8.53125v42.667969c0 4.710937-3.820312 8.53125-8.535156 8.53125zm-128-17.066407h119.46875v-25.597656h-119.46875zm0 0" fill="#428dff"/><path d="m324.265625 315.734375h-136.53125c-37.6875-.042969-68.222656-30.582031-68.269531-68.269531v-59.730469c0-4.714844 3.824218-8.535156 8.535156-8.535156 4.714844 0 8.535156 3.820312 8.535156 8.535156v59.730469c.027344 28.265625 22.933594 51.171875 51.199219 51.203125h136.53125c28.265625-.03125 51.171875-22.9375 51.199219-51.203125v-42.664063c0-4.714843 3.824218-8.535156 8.535156-8.535156 4.714844 0 8.535156 3.820313 8.535156 8.535156v42.664063c-.046875 37.6875-30.582031 68.226562-68.269531 68.269531zm0 0" fill="#428dff"/><path d="m0 495.871094c-.0078125-9.835938.996094-19.648438 2.996094-29.28125 2.171875-9.632813 4.414062-18.128906 6.621094-27.246094 1.222656-4.652344 1.953124-8.601562 3.582031-13.832031 1.46875-4.984375 3.445312-9.800781 5.902343-14.375 4.875-9.144531 11.492188-17.246094 19.484376-23.847657 15.929687-13.183593 35.96875-20.382812 56.644531-20.355468v17.066406c-16.667969-.027344-32.828125 5.761719-45.6875 16.371094-6.316407 5.199218-11.546875 11.59375-15.394531 18.816406-3.726563 7.683594-6.40625 15.835938-7.960938 24.234375-2.144531 8.847656-4.589844 18.246094-6.488281 26.644531-1.757813 8.488282-2.640625 17.136719-2.632813 25.804688zm0 0" fill="#fff"/><g fill="#428dff"><path d="m14.835938 453.8125c-4.570313-1.113281-9.183594 1.671875-10.324219 6.234375-3 11.707031-4.51562525 23.742187-4.511719 35.824219h17.066406c-.007812-10.703125 1.339844-21.363282 4.011719-31.726563 1.113281-4.574219-1.675781-9.191406-6.242187-10.332031zm0 0"/><path d="m95.230469 384v-17.066406c-23.980469-.15625-46.972657 9.546875-63.59375 26.835937-1.707031 1.664063-2.605469 3.992188-2.46875 6.375.140625 2.378907 1.304687 4.585938 3.195312 6.042969 3.523438 2.660156 8.460938 2.378906 11.652344-.671875 13.402344-13.890625 31.917969-21.671875 51.214844-21.515625zm0 0"/><path d="m12.859375 426.660156c-.707031 2.253906-.425781 4.695313.773437 6.730469l.996094 1.300781c.386719.429688.824219.804688 1.308594 1.117188.410156.351562.875.644531 1.371094.859375.523437.226562 1.0625.421875 1.613281.574219 2.203125.507812 4.515625.167968 6.476563-.953126.945312-.609374 1.765624-1.390624 2.417968-2.304687 1.9375-2.457031 2.253906-5.820313.8125-8.597656-.519531-.964844-1.195312-1.839844-2-2.585938-.796875-.785156-1.730468-1.417969-2.753906-1.867187-2.113281-.875-4.496094-.820313-6.570312.148437-2.191407 1.160157-3.800782 3.183594-4.445313 5.578125zm0 0"/><path d="m102.398438 512h-93.863282c-4.714844 0-8.535156-3.820312-8.535156-8.535156v-7.59375c-.0078125-4.535156 3.535156-8.28125 8.0625-8.53125 4.53125-.25 8.460938 3.085937 8.953125 7.59375h85.382813c4.714843 0 8.535156 3.820312 8.535156 8.53125 0 4.714844-3.820313 8.535156-8.535156 8.535156zm0 0"/><path d="m103.253906 384h-8.023437c-4.710938 0-8.53125-3.820312-8.53125-8.535156 0-4.710938 3.820312-8.53125 8.53125-8.53125h8.023437c4.710938 0 8.53125 3.820312 8.53125 8.53125 0 4.714844-3.820312 8.535156-8.53125 8.535156zm0 0"/><path d="m503.464844 512h-93.863282c-4.714843 0-8.535156-3.820312-8.535156-8.535156 0-4.710938 3.820313-8.53125 8.535156-8.53125h85.332032c-.058594-9.921875-1.289063-19.800782-3.667969-29.433594l-7.9375-32.179688c-8.160156-29.820312-35.65625-50.195312-66.558594-49.320312h-7.9375c-4.710937 0-8.535156-3.820312-8.535156-8.535156 0-4.710938 3.824219-8.53125 8.535156-8.53125h7.9375c38.761719-.894532 73.105469 24.851562 83.125 62.308594l7.933594 32.15625c2.785156 11.28125 4.183594 22.855468 4.171875 34.472656v7.59375c0 4.714844-3.820312 8.535156-8.535156 8.535156zm0 0"/><path d="m128 238.933594c-2.996094 0-5.773438-1.574219-7.316406-4.140625-1.09375-1.824219-26.816406-45.210938-26.816406-89.726563l-.035157-4.832031c-.234375-23.261719-.679687-66.5625 31.867188-99.4375 26.796875-27.070313 70.492187-40.796875 129.875-40.796875 60.03125 0 103.871093 13.757812 130.730469 40.886719 32.542968 32.875 32.101562 76.117187 31.867187 99.359375l-.039063 4.820312c-1.152343 31.871094-10.601562 62.894532-27.410156 89.996094-2.246094 2.867188-6.0625 3.996094-9.503906 2.808594s-5.753906-4.425782-5.753906-8.066406v-21.808594c-12.710938-16.121094-24.171875-55.953125-30.015625-78.914063-10.59375 7.972657-29.730469 15.984375-63.847657 15.984375-27.335937.691406-54.347656-6.019531-78.179687-19.417968-4.761719-3.09375-10.097656-5.195313-15.6875-6.183594-10.03125 0-17.261719 1.972656-26.039063 28.300781-5.503906 15.929687-14.046874 30.640625-25.160156 43.308594v39.324219c0 2.265624-.898437 4.4375-2.5 6.039062-1.597656 1.601562-3.769531 2.5-6.035156 2.496094zm221.867188-136.535156c.148437 0 .296874.007812.441406.015624 3.832031.195313 7.058594 2.925782 7.890625 6.667969 6.363281 28.613281 20.550781 78.039063 31.671875 89.515625 6.917968-17.027344 10.710937-35.160156 11.195312-53.53125l.035156-4.996094c.210938-20.746093.601563-59.363281-26.925781-87.175781-23.542969-23.773437-63.296875-35.828125-118.175781-35.828125-55.082031 0-94.699219 12.027344-118.171875 35.734375-27.53125 27.816407-27.140625 66.488281-26.929687 87.257813l.035156 5.007812c.363281 15.558594 3.246094 30.953125 8.53125 45.589844v-2.921875c.003906-2.257813.898437-4.421875 2.488281-6.023437 10.464844-11.363282 18.480469-24.753907 23.554687-39.34375 8.222657-24.675782 18.15625-39.96875 42.226563-39.96875 8.402344.765624 16.5 3.550781 23.589844 8.125 21.394531 12.128906 45.695312 18.171874 70.277343 17.476562 51.277344 0 60.101563-19.566406 60.167969-19.765625 1.164063-3.484375 4.425781-5.835937 8.097657-5.835937zm0 0"/><path d="m204.800781 435.199219c-1.683593 0-3.328125-.496094-4.730469-1.433594-2.210937-1.472656-54.246093-36.617187-63.367187-82.222656-.628906-3.003907.402344-6.113281 2.699219-8.144531s5.507812-2.675782 8.410156-1.683594c2.902344.992187 5.050781 3.464844 5.625 6.476562 6.167969 30.828125 37.90625 57.699219 50.730469 67.464844 11.605469-9.460938 24.066406-17.820312 37.214843-24.980469-18.550781-15.511719-40.386718-26.605469-63.855468-32.441406-4.582032-.960937-7.53125-5.4375-6.613282-10.027344.917969-4.589843 5.367188-7.582031 9.964844-6.707031 30.621094 7.394531 58.664063 22.945312 81.152344 45 1.941406 1.941406 2.828125 4.695312 2.390625 7.402344-.441406 2.707031-2.152344 5.039062-4.605469 6.265625-17.609375 8.78125-34.0625 19.707031-48.984375 32.53125-1.597656 1.601562-3.769531 2.503906-6.03125 2.5zm0 0"/><path d="m307.203125 435.199219c-2.261719.003906-4.4375-.898438-6.035156-2.5-14.917969-12.828125-31.371094-23.757813-48.980469-32.53125-2.457031-1.226563-4.167969-3.558594-4.609375-6.265625-.4375-2.707032.449219-5.460938 2.390625-7.402344 22.488281-22.054688 50.535156-37.601562 81.15625-44.996094 2.988281-.601562 6.070312.4375 8.085938 2.726563 2.015624 2.289062 2.65625 5.480469 1.683593 8.367187-.976562 2.890625-3.417969 5.039063-6.40625 5.640625-23.453125 5.882813-45.28125 16.972657-63.863281 32.445313 13.148438 7.160156 25.605469 15.519531 37.210938 24.976562 12.828124-9.765625 44.5625-36.636718 50.730468-67.464844.574219-3.011718 2.722656-5.484374 5.625-6.476562s6.113282-.347656 8.410156 1.683594c2.300782 2.03125 3.328126 5.140625 2.699219 8.144531-9.121093 45.605469-61.15625 80.75-63.367187 82.222656-1.398438.933594-3.046875 1.433594-4.730469 1.429688zm0 0"/><path d="m262.484375 452.265625h-12.96875c-9.046875-.027344-17.714844-3.625-24.125-10.007813l-17.492187-17.492187c-3.261719-3.34375-3.226563-8.6875.074218-11.992187 3.304688-3.300782 8.648438-3.335938 11.992188-.074219l17.492187 17.492187c3.203125 3.191406 7.535157 4.992188 12.058594 5.007813h12.96875c4.523437-.015625 8.855469-1.816407 12.058594-5.007813l17.496093-17.492187c3.34375-3.261719 8.6875-3.226563 11.988282.074219 3.304687 3.304687 3.335937 8.648437.078125 11.992187l-17.496094 17.492187c-6.410156 6.382813-15.078125 9.980469-24.125 10.007813zm0 0"/><path d="m230.414062 512c-2.476562 0-4.828124-1.074219-6.453124-2.941406-1.621094-1.871094-2.351563-4.351563-2.007813-6.800782l8.535156-59.734374c.753907-4.578126 5.03125-7.71875 9.628907-7.058594 4.59375.65625 7.824218 4.867187 7.261718 9.476562l-8.535156 59.734375c-.597656 4.195313-4.191406 7.316407-8.429688 7.324219zm0 0"/><path d="m290.132812 512c-3.808593-.003906-7.152343-2.527344-8.199218-6.1875l-17.066406-59.734375c-1.246094-4.511719 1.378906-9.1875 5.878906-10.472656 4.5-1.289063 9.199218 1.289062 10.527344 5.78125l17.066406 59.734375c.738281 2.574218.222656 5.347656-1.390625 7.484375-1.613281 2.140625-4.136719 3.394531-6.816407 3.394531zm0 0"/></g></svg>